<mxfile host="app.diagrams.net" modified="2020-08-24T06:51:40.075Z" agent="5.0 (Windows)" etag="w_4OS0q7decUZh-NTzED" version="13.6.2" type="github">
  <diagram id="FDCdzWXGqKfYT296mHrc" name="Page-1">
    <mxGraphModel dx="1391" dy="545" grid="1" gridSize="10" guides="1" tooltips="1" connect="1" arrows="1" fold="1" page="1" pageScale="1" pageWidth="850" pageHeight="1100" math="0" shadow="0">
      <root>
        <mxCell id="0" />
        <mxCell id="1" parent="0" />
        <mxCell id="sdasqatrz8DXoAbGRj8f-18" value="" style="rounded=0;whiteSpace=wrap;html=1;" vertex="1" parent="1">
          <mxGeometry x="50" y="260" width="720" height="300" as="geometry" />
        </mxCell>
        <mxCell id="sdasqatrz8DXoAbGRj8f-10" style="edgeStyle=orthogonalEdgeStyle;rounded=0;orthogonalLoop=1;jettySize=auto;html=1;entryX=0;entryY=0.5;entryDx=0;entryDy=0;" edge="1" parent="1" source="sdasqatrz8DXoAbGRj8f-1" target="sdasqatrz8DXoAbGRj8f-2">
          <mxGeometry relative="1" as="geometry" />
        </mxCell>
        <mxCell id="sdasqatrz8DXoAbGRj8f-1" value="" style="html=1;verticalLabelPosition=bottom;align=center;labelBackgroundColor=#ffffff;verticalAlign=top;strokeWidth=2;strokeColor=#0080F0;shadow=0;dashed=0;shape=mxgraph.ios7.icons.smartphone;" vertex="1" parent="1">
          <mxGeometry x="100" y="180" width="80" height="70" as="geometry" />
        </mxCell>
        <mxCell id="sdasqatrz8DXoAbGRj8f-11" style="edgeStyle=orthogonalEdgeStyle;rounded=0;orthogonalLoop=1;jettySize=auto;html=1;" edge="1" parent="1" source="sdasqatrz8DXoAbGRj8f-2" target="sdasqatrz8DXoAbGRj8f-3">
          <mxGeometry relative="1" as="geometry" />
        </mxCell>
        <mxCell id="sdasqatrz8DXoAbGRj8f-2" value="Mobile Cloud " style="rounded=0;whiteSpace=wrap;html=1;" vertex="1" parent="1">
          <mxGeometry x="210" y="60" width="120" height="60" as="geometry" />
        </mxCell>
        <mxCell id="sdasqatrz8DXoAbGRj8f-12" style="edgeStyle=orthogonalEdgeStyle;rounded=0;orthogonalLoop=1;jettySize=auto;html=1;" edge="1" parent="1" source="sdasqatrz8DXoAbGRj8f-3" target="sdasqatrz8DXoAbGRj8f-4">
          <mxGeometry relative="1" as="geometry" />
        </mxCell>
        <mxCell id="sdasqatrz8DXoAbGRj8f-13" style="edgeStyle=orthogonalEdgeStyle;rounded=0;orthogonalLoop=1;jettySize=auto;html=1;entryX=0.25;entryY=0;entryDx=0;entryDy=0;" edge="1" parent="1" source="sdasqatrz8DXoAbGRj8f-3" target="sdasqatrz8DXoAbGRj8f-5">
          <mxGeometry relative="1" as="geometry" />
        </mxCell>
        <mxCell id="sdasqatrz8DXoAbGRj8f-3" value="Oracle Integration cloud " style="rounded=0;whiteSpace=wrap;html=1;" vertex="1" parent="1">
          <mxGeometry x="440" y="60" width="120" height="60" as="geometry" />
        </mxCell>
        <mxCell id="sdasqatrz8DXoAbGRj8f-4" value="Third Party" style="rounded=0;whiteSpace=wrap;html=1;" vertex="1" parent="1">
          <mxGeometry x="640" y="160" width="120" height="60" as="geometry" />
        </mxCell>
        <mxCell id="sdasqatrz8DXoAbGRj8f-14" style="edgeStyle=orthogonalEdgeStyle;rounded=0;orthogonalLoop=1;jettySize=auto;html=1;entryX=0.392;entryY=-0.017;entryDx=0;entryDy=0;entryPerimeter=0;" edge="1" parent="1" source="sdasqatrz8DXoAbGRj8f-5" target="sdasqatrz8DXoAbGRj8f-6">
          <mxGeometry relative="1" as="geometry" />
        </mxCell>
        <mxCell id="sdasqatrz8DXoAbGRj8f-5" value="Event hub " style="rounded=0;whiteSpace=wrap;html=1;" vertex="1" parent="1">
          <mxGeometry x="520" y="250" width="120" height="60" as="geometry" />
        </mxCell>
        <mxCell id="sdasqatrz8DXoAbGRj8f-6" value="Oracle Object Storage " style="rounded=0;whiteSpace=wrap;html=1;" vertex="1" parent="1">
          <mxGeometry x="530" y="370" width="120" height="60" as="geometry" />
        </mxCell>
        <mxCell id="sdasqatrz8DXoAbGRj8f-17" style="edgeStyle=orthogonalEdgeStyle;rounded=0;orthogonalLoop=1;jettySize=auto;html=1;entryX=0.5;entryY=0;entryDx=0;entryDy=0;" edge="1" parent="1" source="sdasqatrz8DXoAbGRj8f-7" target="sdasqatrz8DXoAbGRj8f-9">
          <mxGeometry relative="1" as="geometry" />
        </mxCell>
        <mxCell id="sdasqatrz8DXoAbGRj8f-7" value="Hive " style="rounded=0;whiteSpace=wrap;html=1;" vertex="1" parent="1">
          <mxGeometry x="240" y="360" width="120" height="60" as="geometry" />
        </mxCell>
        <mxCell id="sdasqatrz8DXoAbGRj8f-15" style="edgeStyle=orthogonalEdgeStyle;rounded=0;orthogonalLoop=1;jettySize=auto;html=1;" edge="1" parent="1" source="sdasqatrz8DXoAbGRj8f-8" target="sdasqatrz8DXoAbGRj8f-6">
          <mxGeometry relative="1" as="geometry">
            <Array as="points">
              <mxPoint x="400" y="370" />
            </Array>
          </mxGeometry>
        </mxCell>
        <mxCell id="sdasqatrz8DXoAbGRj8f-16" style="edgeStyle=orthogonalEdgeStyle;rounded=0;orthogonalLoop=1;jettySize=auto;html=1;entryX=0.5;entryY=0;entryDx=0;entryDy=0;" edge="1" parent="1" source="sdasqatrz8DXoAbGRj8f-8" target="sdasqatrz8DXoAbGRj8f-7">
          <mxGeometry relative="1" as="geometry">
            <Array as="points">
              <mxPoint x="320" y="290" />
              <mxPoint x="320" y="340" />
              <mxPoint x="300" y="340" />
            </Array>
          </mxGeometry>
        </mxCell>
        <mxCell id="sdasqatrz8DXoAbGRj8f-8" value="Spark " style="ellipse;whiteSpace=wrap;html=1;" vertex="1" parent="1">
          <mxGeometry x="340" y="260" width="120" height="80" as="geometry" />
        </mxCell>
        <mxCell id="sdasqatrz8DXoAbGRj8f-9" value="Analytic Cloud " style="rounded=0;whiteSpace=wrap;html=1;" vertex="1" parent="1">
          <mxGeometry x="130" y="490" width="120" height="60" as="geometry" />
        </mxCell>
      </root>
    </mxGraphModel>
  </diagram>
</mxfile>
